<svg xmlns="http://www.w3.org/2000/svg" width="57" height="57" viewBox="0 0 57 57">
    <g fill="none" fill-rule="evenodd">
        <ellipse cx="57" cy="57" fill-opacity="0" rx="57" ry="57"/>
        <path fill="#fff" fill-rule="nonzero" d="M40.76 30.117c.066-.528.115-1.056.115-1.617 0-.561-.05-1.089-.116-1.617l3.482-2.722a.832.832 0 0 0 .198-1.057l-3.3-5.709c-.198-.363-.644-.495-1.007-.363l-4.108 1.65a12.055 12.055 0 0 0-2.789-1.617l-.627-4.372A.805.805 0 0 0 31.8 12h-6.6a.805.805 0 0 0-.809.693l-.627 4.372c-1.006.413-1.93.974-2.788 1.617l-4.109-1.65a.805.805 0 0 0-1.006.363l-3.3 5.71a.813.813 0 0 0 .198 1.055l3.481 2.723a13.085 13.085 0 0 0-.115 1.617c0 .544.05 1.089.115 1.617l-3.481 2.722a.832.832 0 0 0-.198 1.056l3.3 5.71c.198.363.643.495 1.006.363l4.109-1.65c.858.66 1.782 1.204 2.788 1.616l.627 4.373c.05.396.396.693.809.693h6.6a.805.805 0 0 0 .808-.693l.627-4.373c1.007-.412 1.931-.973 2.789-1.616l4.108 1.65c.38.148.809 0 1.007-.364l3.3-5.709a.832.832 0 0 0-.198-1.056l-3.482-2.722zM28.5 34.275a5.781 5.781 0 0 1-5.775-5.775 5.781 5.781 0 0 1 5.775-5.775 5.781 5.781 0 0 1 5.775 5.775 5.781 5.781 0 0 1-5.775 5.775z"/>
    </g>
</svg>
