<svg xmlns="http://www.w3.org/2000/svg" width="57" height="57" viewBox="0 0 57 57">
    <g fill="none" fill-rule="evenodd">
        <ellipse cx="28.5" cy="28.5" fill-opacity="0" rx="28.5" ry="28.5"/>
        <path fill="#fff" d="M29 32.8c2.1 0 3.8-1.7 3.8-3.8h3.8a7.6 7.6 0 1 1-2.227-5.373l-2.686 2.686A3.799 3.799 0 0 0 25.2 29c0 2.1 1.7 3.8 3.8 3.8m0 11.4c-8.394 0-15.2-6.806-15.2-15.2 0-8.394 6.806-15.2 15.2-15.2 4.197 0 7.997 1.7 10.748 4.452l-2.686 2.686A11.372 11.372 0 0 0 29 17.6c-6.297 0-11.4 5.103-11.4 11.4 0 6.297 5.103 11.4 11.4 11.4 6.297 0 11.4-5.103 11.4-11.4h3.8c0 8.394-6.806 15.2-15.2 15.2M29 10c-10.494 0-19 8.506-19 19s8.506 19 19 19 19-8.506 19-19-8.506-19-19-19"/>
    </g>
</svg>
