<svg xmlns="http://www.w3.org/2000/svg" width="60" height="60" viewBox="0 0 70 70">
    <g fill="none" fill-rule="evenodd" transform="translate(9, 12)">
        <path fill="#000000" fill-rule="nonzero" d="M22.44 5.083L3.676 35.234c-1.402 2.252-.632 3.652 2.015 3.652h38.527c2.641 0 3.406-1.393 1.992-3.648L27.308 5.087c-1.454-2.32-3.427-2.319-4.868-.004zM20.164 3.65c2.491-4.003 6.907-4.005 9.416-.003l18.902 30.15c2.54 4.053.491 7.787-4.264 7.787H5.691c-4.758 0-6.812-3.734-4.292-7.782L20.164 3.65z"/>
        <path fill="#000000" d="M27.742 27.234h-4.595V12.146h4.595v15.088zm0 7.94h-4.595v-4.05h4.595v4.05z"/>
    </g>
</svg>
