<svg xmlns="http://www.w3.org/2000/svg" width="60" height="60" viewBox="0 0 70 70">
    <g fill="#fff" fill-rule="evenodd" transform="translate(17, 13.7)">
        <path d="M21.691 18.21c1.848.164 5.742.165 9.245-4.232C35.277 8.528 33.946 7 33.946 7s-1.732 5.212-12.004 5.212c-.085 0-.169 0-.25.002V7.637L13 14.724l8.691 8.785v-5.3z"/>
        <path fill-rule="nonzero" d="M24.628 32.759a1.3 1.3 0 0 0-1.295 1.306v-1.306h1.295zM5.185 34.076c0-.73-.582-1.317-1.294-1.317h1.294v1.317zM3.891 5.241c.711 0 1.294-.587 1.294-1.317V5.24H3.891zm19.442-1.319c0 .738.576 1.32 1.295 1.32h-1.295v-1.32zm0 18.402h5.186v11.74c0 2.174-1.742 3.936-3.891 3.936H3.89C1.74 38 0 36.243 0 34.076V3.924C0 1.757 1.741 0 3.89 0h20.738c2.149 0 3.89 1.77 3.89 3.922V7.8h-5.185V5.241H5.185V32.76h18.148V22.324zm1.295-17.083c-.72 0-1.295-.58-1.295-1.319v1.32h1.295zm-20.737 0c.711 0 1.294-.587 1.294-1.317V5.24H3.891zm1.294 28.835c0-.73-.582-1.317-1.294-1.317h1.294v1.317zm19.443-1.317a1.3 1.3 0 0 0-1.295 1.306v-1.306h1.295zM5.185 5.24V32.76h18.148V22.324h5.186v11.74c0 2.174-1.742 3.936-3.891 3.936H3.89C1.74 38 0 36.243 0 34.076V3.924C0 1.757 1.741 0 3.89 0h20.738c2.149 0 3.89 1.77 3.89 3.922V7.8h-5.185V5.241H5.185z"/>
        <path d="M2.593 28.828h23.333v7.862H2.593v-7.862zm3.888 1.31v2.62h15.556v-2.62H6.481z"/>
    </g>
</svg>
