<svg width="43px" height="36px" viewBox="0 0 43 36" version="1.1" xmlns="http://www.w3.org/2000/svg" xmlns:xlink="http://www.w3.org/1999/xlink">
    <g id="Symbols" stroke="none" stroke-width="1" fill="none" fill-rule="evenodd">
        <g id="radar-storm-no-alerts" transform="translate(-159.000000, -292.000000)" fill="#000">
            <g id="alert-icon" transform="translate(152.000000, 284.000000)">
                <path d="M31.788346,12.3983994 L46.6595741,36.0339589 C48.3985404,38.7977819 47.0845129,41.1921856 43.822804,41.1921856 L13.5119414,41.1921856 C10.2514044,41.1921856 8.92712264,38.7997409 10.6539031,36.035188 L25.4170223,12.3996286 C27.1380718,9.6442508 30.0562072,9.64542771 31.788346,12.3983994 Z M44.1203709,37.6315969 L29.2491428,13.9960374 C28.6940011,13.113724 28.508165,13.1136491 27.9614576,13.9889204 L13.1983385,37.6244799 C13.0711475,37.828111 12.9845288,38.0031061 12.9344185,38.1420372 C13.0784918,38.1730133 13.2723643,38.1921856 13.5119414,38.1921856 L43.822804,38.1921856 C44.0549458,38.1921856 44.2438496,38.1741976 44.3857063,38.1450147 C44.3342167,38.0064237 44.2470375,37.8329143 44.1203709,37.6315969 Z M11.4072685,36.502349 C10.0477168,38.6789735 10.9487958,40.308046 13.5119414,40.308046 L43.822804,40.308046 C46.3835274,40.308046 47.2780732,38.6814992 45.9077498,36.5035782 L31.0365217,12.8680187 C29.6517352,10.6671108 27.5437738,10.6680164 26.1703877,12.8667895 L11.4072685,36.502349 Z M33.5757249,11.2703807 L48.446953,34.9059401 C51.0726717,39.0791215 48.746906,43.308046 43.822804,43.308046 L13.5119414,43.308046 C8.59116973,43.308046 6.25608808,39.0864217 8.86283315,34.9130571 L23.6259523,11.2774977 C26.1729671,7.19976038 31.0132279,7.1976808 33.5757249,11.2703807 Z" id="Path-4" fill-rule="nonzero"></path>
                <path d="M30.8553151,30.0964943 L27.2407023,30.0964943 L27.2407023,20.834658 L30.8553151,20.834658 L30.8553151,30.0964943 Z M30.8553151,35.9807464 L27.2407023,35.9807464 L27.2407023,32.8069559 L30.8553151,32.8069559 L30.8553151,35.9807464 Z" id="!" fill-rule="evenodd"></path>
            </g>
        </g>
    </g>
</svg>