<?xml version="1.0" encoding="UTF-8"?>
<svg width="50px" height="50px" viewBox="0 0 50 50" version="1.1" xmlns="http://www.w3.org/2000/svg" xmlns:xlink="http://www.w3.org/1999/xlink">
    <!-- Generator: Sketch 44.1 (41455) - http://www.bohemiancoding.com/sketch -->
    <title>warning-icon-new</title>
    <desc>Created with Sketch.</desc>
    <defs></defs>
    <g id="Page-1" stroke="none" stroke-width="1" fill="none" fill-rule="evenodd">
        <g id="warning-icon-new">
            <rect id="Rectangle" fill-opacity="0.01" fill="#000000" x="0" y="0" width="50" height="50"></rect>
            <path d="M22.44,8.083 L3.676,38.234 C2.274,40.486 3.044,41.886 5.691,41.886 L44.218,41.886 C46.859,41.886 47.624,40.493 46.21,38.238 L27.308,8.087 C25.854,5.767 23.881,5.768 22.44,8.083 Z M20.164,6.65 C22.655,2.647 27.071,2.645 29.58,6.647 L48.482,36.797 C51.022,40.85 48.973,44.584 44.218,44.584 L5.691,44.584 C0.933,44.584 -1.121,40.85 1.399,36.802 L20.164,6.65 Z" id="Shape" fill="#D21E2C" fill-rule="nonzero"></path>
            <path d="M27.742,30.234 L23.147,30.234 L23.147,15.146 L27.742,15.146 L27.742,30.234 Z M27.742,38.174 L23.147,38.174 L23.147,34.124 L27.742,34.124 L27.742,38.174 Z" id="Shape" fill="#CF1C2D" fill-rule="nonzero"></path>
        </g>
    </g>
</svg>